<?xml version="1.0" encoding="UTF-8"?>
<svg id="b" data-name="Layer 2" xmlns="http://www.w3.org/2000/svg" xmlns:xlink="http://www.w3.org/1999/xlink" viewBox="0 0 243.77 164.96">
  <defs>
    <style>
      .e {
        fill: none;
      }

      .f {
        fill: #0344f2;
      }

      .g {
        fill: #e3edfd;
      }

      .h {
        clip-path: url(#d);
      }
    </style>
    <clipPath id="d">
      <rect class="e" width="243.77" height="164.96"/>
    </clipPath>
  </defs>
  <g id="c" data-name="Layer 1">
    <g class="h">
      <path class="g" d="M215.15,101.37c0-9.16-5.95-15.11-13.13-15.11s-13.13,5.94-13.13,15.11,5.95,15.11,13.13,15.11,13.13-5.94,13.13-15.11M194.34,101.37c0-6.69,3.52-10.16,7.68-10.16s7.68,3.47,7.68,10.16-3.52,10.16-7.68,10.16-7.68-3.47-7.68-10.16M168.08,106.33c0-2.77,2.53-5.2,5.94-5.2s5.95,2.43,5.95,5.2-2.53,5.2-5.95,5.2-5.94-2.43-5.94-5.2M165.11,99.64c-.45.6-.89,1.24-1.24,1.93-.64,1.19-1.24,2.92-1.24,4.76,0,5.45,4.71,10.16,11.4,10.16s11.4-4.71,11.4-10.16-4.71-10.16-11.4-10.16h-.49l6.44-9.41h-5.95l-8.92,12.88ZM136.38,112.02c.69.84,1.59,1.58,2.68,2.23,1.83,1.14,4.56,2.23,8.47,2.23,7.18,0,11.4-4.16,11.4-8.67,0-2.82-1.44-4.61-2.97-5.75-.84-.64-1.83-1.09-2.97-1.44.84-.3,1.64-.74,2.33-1.34,1.19-.99,2.38-2.58,2.38-5.1,0-4.21-3.96-7.93-10.16-7.93-3.37,0-5.85,1.09-7.58,2.13-.99.6-1.83,1.29-2.58,2.08l3.72,3.71c.45-.54.99-1.04,1.59-1.49,1.04-.74,2.63-1.49,4.61-1.49,3.52,0,4.95,1.49,4.95,3.47s-1.73,3.72-4.71,3.72h-3.47v4.95h3.47c4.21,0,5.95,1.73,5.95,3.96s-1.98,4.21-6.19,4.21c-2.53,0-4.26-.79-5.45-1.58-.69-.45-1.29-.99-1.73-1.63l-3.72,3.72ZM125.23,84.78c0,1.73,1.44,2.97,2.97,2.97s2.97-1.24,2.97-2.97-1.44-2.97-2.97-2.97-2.97,1.24-2.97,2.97M125.72,115.99h4.95v-23.78h-4.95v23.78ZM74.45,101.62c.99-3.22,3.17-5.45,6.94-5.45,3.52,0,5.7,2.23,6.44,5.45h-13.38ZM88.82,108.56c-.55.64-1.19,1.19-1.88,1.64-1.19.79-2.92,1.58-5.05,1.58-4.01,0-6.89-2.72-7.43-5.94h18.33l.1-.69c.05-.45.15-1.04.15-1.78,0-6.74-4.9-11.64-11.64-11.64s-12.14,5.45-12.14,12.39,5.45,12.39,12.39,12.39c3.52,0,5.95-1.09,7.68-2.23.99-.64,1.83-1.39,2.48-2.23l-2.97-3.47ZM28.62,115.99h4.95v-13.13c0-3.96,2.48-6.44,5.7-6.44,2.77,0,4.95,1.93,4.95,5.45v14.12h4.95v-13.13c0-3.96,2.48-6.44,5.7-6.44,2.77,0,4.95,1.93,4.95,5.45v14.12h4.95v-14.12c0-6.19-3.96-10.16-8.67-10.16-2.97,0-5,.99-6.34,1.98-.74.6-1.39,1.24-1.83,1.98-.49-.74-1.09-1.39-1.78-1.98-1.19-.99-3.07-1.98-5.65-1.98s-4.21.99-5.35,1.98c-.64.6-1.19,1.24-1.59,1.98v-3.47h-4.95v23.78Z"/>
      <path class="g" d="M115.6,104.84c0-3.72-2.97-6.69-6.93-6.69s-6.94,2.97-6.94,6.69,2.97,6.69,6.94,6.69,6.93-2.97,6.93-6.69M118.58,97.16c.45.74.89,1.54,1.24,2.38.64,1.44,1.24,3.32,1.24,5.3,0,6.44-5.2,11.64-12.39,11.64s-12.39-5.2-12.39-11.64,5.2-11.64,11.89-11.64c.74,0,1.34.1,1.69.15l.54.1-7.93-12.14h5.94l10.16,15.85Z"/>
      <path class="f" d="M210.19,135.89c.15.17.32.32.52.45.35.23.89.44,1.62.44,1.33,0,2.14-.81,2.14-1.75,0-2.22-3.16-1.41-3.16-2.74,0-.44.38-.81,1.11-.81.4,0,.72.15.92.28.12.08.22.17.32.27l.64-.64c-.13-.15-.29-.27-.48-.39-.32-.2-.79-.38-1.4-.38-1.27,0-2.05.77-2.05,1.67,0,2.22,3.16,1.41,3.16,2.74,0,.48-.42.9-1.2.9-.51,0-.89-.17-1.14-.34-.15-.1-.26-.21-.36-.34l-.64.64ZM204.81,136.7h4.32v-.9h-3.38v-1.75h2.61v-.9h-2.61v-1.54h3.29v-.9h-4.23v5.98ZM202.67,134.99c-.13.18-.29.33-.48.47-.32.24-.79.47-1.4.47-1.24,0-2.22-.98-2.22-2.22s.98-2.22,2.22-2.22c.62,0,1.08.22,1.38.45.18.13.33.28.45.44l.6-.6c-.17-.21-.38-.4-.61-.57-.41-.3-1.01-.58-1.83-.58-1.79,0-3.16,1.37-3.16,3.08s1.37,3.08,3.16,3.08c.82,0,1.43-.3,1.85-.6.25-.18.45-.38.63-.6l-.6-.6ZM194.93,136.7h.94v-5.98h-.94v5.98ZM190.19,136.7h1.03l2.31-5.98h-.98l-1.84,4.79-1.84-4.79h-.98l2.31,5.98ZM183.39,133.63v-2.05h1.54c.61,0,1.03.42,1.03,1.03s-.42,1.03-1.03,1.03h-1.54ZM182.45,136.7h.94v-2.22h1.41l1.24,2.22h1.07l-1.36-2.39c.21-.08.4-.2.57-.36.28-.26.57-.67.57-1.35,0-1.06-.81-1.88-1.97-1.88h-2.48v5.98ZM176.47,136.7h4.32v-.9h-3.38v-1.75h2.61v-.9h-2.61v-1.54h3.29v-.9h-4.23v5.98ZM170.57,135.89c.15.17.32.32.52.45.35.23.89.44,1.62.44,1.33,0,2.14-.81,2.14-1.75,0-2.22-3.16-1.41-3.16-2.74,0-.44.38-.81,1.11-.81.4,0,.72.15.92.28.12.08.22.17.32.27l.64-.64c-.13-.15-.29-.27-.48-.39-.32-.2-.79-.38-1.4-.38-1.27,0-2.05.77-2.05,1.67,0,2.22,3.16,1.41,3.16,2.74,0,.48-.42.9-1.2.9-.51,0-.89-.17-1.14-.34-.15-.1-.26-.21-.36-.34l-.64.64ZM164.75,136.7h.94v-5.09h1.79v-.9h-4.53v.9h1.8v5.09ZM156.41,136.7h.94v-4.4l3.29,4.4h.85v-5.98h-.94v4.4l-3.29-4.4h-.85v5.98ZM150.43,136.7h4.32v-.9h-3.38v-1.75h2.61v-.9h-2.61v-1.54h3.29v-.9h-4.23v5.98ZM142.05,136.7h.94v-4.4l2.18,2.78,2.18-2.78v4.4h.94v-5.98h-.85l-2.27,2.91-2.27-2.91h-.85v5.98ZM137.86,136.7h.94v-5.09h1.79v-.9h-4.53v.9h1.8v5.09ZM133.67,136.7h.94v-5.98h-.94v5.98ZM126.58,134.31c0,1.45,1.02,2.48,2.52,2.48s2.52-1.02,2.52-2.48v-3.59h-.94v3.59c0,.9-.73,1.62-1.58,1.62-.9,0-1.58-.68-1.58-1.62v-3.59h-.94v3.59ZM121.27,133.63v-2.05h1.54c.61,0,1.03.42,1.03,1.03s-.42,1.03-1.03,1.03h-1.54ZM120.33,136.7h.94v-2.22h1.41l1.24,2.22h1.07l-1.36-2.39c.21-.08.4-.2.57-.36.28-.26.57-.67.57-1.35,0-1.06-.81-1.88-1.97-1.88h-2.48v5.98ZM118.2,134.99c-.13.18-.29.33-.48.47-.32.24-.79.47-1.4.47-1.24,0-2.22-.98-2.22-2.22s.98-2.22,2.22-2.22c.61,0,1.08.22,1.39.45.18.13.33.28.45.44l.6-.6c-.17-.21-.38-.4-.61-.57-.41-.3-1.01-.58-1.83-.58-1.79,0-3.16,1.37-3.16,3.08s1.37,3.08,3.16,3.08c.82,0,1.43-.3,1.85-.6.25-.18.45-.38.63-.6l-.6-.6ZM107.72,136.7h4.32v-.9h-3.38v-1.75h2.61v-.9h-2.61v-1.54h3.29v-.9h-4.23v5.98ZM102.34,133.63v-2.05h1.54c.61,0,1.03.42,1.03,1.03s-.42,1.03-1.03,1.03h-1.54ZM101.4,136.7h.94v-2.22h1.41l1.24,2.22h1.07l-1.36-2.39c.21-.08.4-.2.57-.36.28-.26.57-.67.57-1.35,0-1.06-.81-1.88-1.97-1.88h-2.48v5.98ZM94.51,133.07c-.12-.12-.23-.24-.33-.36-.16-.2-.32-.47-.32-.71,0-.34.25-.6.69-.6.38,0,.64.26.64.6,0,.24-.17.51-.34.71-.1.12-.21.24-.34.36ZM95.62,135.63c-.09.08-.18.15-.28.21-.18.11-.44.22-.79.22-.56,0-.94-.39-.94-.81,0-.34.19-.62.39-.83.11-.12.24-.23.38-.32l1.24,1.54ZM94.94,133.58c.2-.14.38-.29.53-.46.26-.3.54-.68.54-1.16,0-.72-.6-1.32-1.45-1.32-.9,0-1.5.6-1.5,1.37,0,.38.21.78.43,1.08.13.18.26.34.43.5-.21.11-.41.26-.58.42-.3.28-.57.71-.57,1.29,0,.85.68,1.54,1.75,1.54.51,0,.91-.15,1.2-.32.16-.09.31-.21.43-.32.08.11.17.21.27.3.18.16.42.3.75.3.15,0,.25,0,.31-.02l.08-.02v-.77l-.08.03c-.06,0-.12.02-.18.02-.17,0-.33-.09-.45-.19-.07-.06-.13-.12-.19-.2.1-.16.2-.33.27-.53.14-.33.28-.8.28-1.31h-.77c0,.34-.08.64-.17.86-.05.13-.11.24-.17.34l-1.15-1.41ZM86.55,134.39h1.24v.9c-.11.12-.25.23-.41.32-.27.16-.67.32-1.21.32-1.24,0-2.22-.98-2.22-2.22s.98-2.22,2.22-2.22c.62,0,1.08.22,1.39.45.18.13.33.28.45.44l.6-.6c-.17-.21-.38-.4-.61-.57-.41-.3-1.01-.58-1.83-.58-1.8,0-3.16,1.37-3.16,3.08s1.37,3.08,3.16,3.08c.83,0,1.47-.27,1.91-.57.26-.17.48-.37.66-.58v-2.09h-2.18v.85ZM76.16,136.7h.94v-4.4l3.29,4.4h.85v-5.98h-.94v4.4l-3.29-4.4h-.85v5.98ZM73.09,136.7h.94v-5.98h-.94v5.98ZM68.9,136.7h.94v-5.09h1.8v-.9h-4.53v.9h1.8v5.09ZM63,136.7h3.85v-.9h-2.91v-5.09h-.94v5.98ZM55.9,134.31c0,1.45,1.02,2.48,2.52,2.48s2.52-1.02,2.52-2.48v-3.59h-.94v3.59c0,.9-.73,1.62-1.58,1.62-.9,0-1.58-.68-1.58-1.62v-3.59h-.94v3.59ZM50.09,135.89c.15.17.32.32.52.45.35.23.89.44,1.62.44,1.33,0,2.14-.81,2.14-1.75,0-2.22-3.16-1.41-3.16-2.74,0-.44.38-.81,1.11-.81.4,0,.72.15.92.28.12.08.22.17.32.27l.64-.64c-.13-.15-.29-.27-.48-.39-.32-.2-.79-.38-1.4-.38-1.27,0-2.05.77-2.05,1.67,0,2.22,3.16,1.41,3.16,2.74,0,.48-.42.9-1.2.9-.51,0-.89-.17-1.14-.34-.15-.1-.26-.21-.36-.34l-.64.64ZM43.46,136.7h.94v-4.4l3.29,4.4h.85v-5.98h-.94v4.4l-3.29-4.4h-.85v5.98ZM35.39,133.71c0,1.71,1.37,3.08,3.16,3.08s3.16-1.37,3.16-3.08-1.37-3.08-3.16-3.08-3.16,1.37-3.16,3.08M36.32,133.71c0-1.24.98-2.22,2.22-2.22s2.22.98,2.22,2.22-.98,2.22-2.22,2.22-2.22-.98-2.22-2.22M33.8,134.99c-.13.18-.29.33-.48.47-.32.24-.79.47-1.4.47-1.24,0-2.22-.98-2.22-2.22s.98-2.22,2.22-2.22c.62,0,1.08.22,1.38.45.18.13.33.28.45.44l.6-.6c-.17-.21-.38-.4-.61-.57-.41-.3-1.01-.58-1.83-.58-1.8,0-3.16,1.37-3.16,3.08s1.37,3.08,3.16,3.08c.82,0,1.43-.3,1.85-.6.25-.18.45-.38.63-.6l-.6-.6Z"/>
      <path class="f" d="M100.45,31.78c-4.1,3.18-6.75,8.14-6.75,13.73s2.65,10.55,6.75,13.73c-.99-4.42-1.53-9.01-1.53-13.73s.54-9.31,1.53-13.73"/>
      <path class="f" d="M119.26,28.14c-.12,0-.23-.02-.35-.02-9.6,0-17.39,7.78-17.39,17.39s7.78,17.39,17.39,17.39c.12,0,.23-.01.35-.02-2.43-5.3-3.82-11.16-3.82-17.37s1.39-12.08,3.82-17.37"/>
      <path class="f" d="M135.44,62.9c9.6,0,17.39-7.78,17.39-17.39s-7.79-17.39-17.39-17.39-17.39,7.78-17.39,17.39,7.78,17.39,17.39,17.39"/>
    </g>
  </g>
</svg>