<?xml version="1.0" encoding="UTF-8"?>
<svg id="b" xmlns="http://www.w3.org/2000/svg" xmlns:xlink="http://www.w3.org/1999/xlink" version="1.1" viewBox="0 0 168.8 54.5">
  <!-- Generator: Adobe Illustrator 30.3.0, SVG Export Plug-In . SVG Version: 2.1.3 Build 182)  -->
  <defs>
    <style>
      .st0 {
        fill: none;
      }

      .st1 {
        fill: #fff;
      }

      .st2 {
        clip-path: url(#clippath);
      }
    </style>
    <clipPath id="clippath">
      <rect class="st0" width="168.8" height="54.5"/>
    </clipPath>
  </defs>
  <g id="c">
    <g class="st2">
      <path class="st1" d="M156.1,28c0-6.9-4.5-11.3-9.9-11.3s-9.9,4.5-9.9,11.3,4.5,11.3,9.9,11.3,9.9-4.5,9.9-11.3M140.5,28c0-5,2.6-7.6,5.8-7.6s5.8,2.6,5.8,7.6-2.6,7.6-5.8,7.6-5.8-2.6-5.8-7.6M120.8,31.7c0-2.1,1.9-3.9,4.5-3.9s4.5,1.8,4.5,3.9-1.9,3.9-4.5,3.9-4.5-1.8-4.5-3.9M118.6,26.7c-.3.5-.7.9-.9,1.5-.5.9-.9,2.2-.9,3.6,0,4.1,3.5,7.6,8.6,7.6s8.6-3.5,8.6-7.6-3.5-7.6-8.6-7.6h-.4l4.8-7.1h-4.5l-6.7,9.7h0ZM97,36c.5.6,1.2,1.2,2,1.7,1.4.8,3.4,1.7,6.3,1.7,5.4,0,8.6-3.1,8.6-6.5s-1.1-3.5-2.2-4.3c-.6-.5-1.4-.8-2.2-1.1.6-.2,1.2-.6,1.8-1,.9-.7,1.8-1.9,1.8-3.8,0-3.2-3-5.9-7.6-5.9s-4.4.8-5.7,1.6c-.7.5-1.4,1-1.9,1.6l2.8,2.8c.3-.4.7-.8,1.2-1.1.8-.6,2-1.1,3.5-1.1,2.6,0,3.7,1.1,3.7,2.6s-1.3,2.8-3.5,2.8h-2.6v3.7h2.6c3.2,0,4.5,1.3,4.5,3s-1.5,3.2-4.6,3.2-3.2-.6-4.1-1.2c-.5-.3-1-.7-1.3-1.2l-2.8,2.8h0l-.3-.3ZM88.7,15.5c0,1.3,1.1,2.2,2.2,2.2s2.2-.9,2.2-2.2-1.1-2.2-2.2-2.2-2.2.9-2.2,2.2M89.1,38.9h3.7v-17.8h-3.7v17.8ZM75.1,35.8c-3,0-5.4-2.4-5.4-5.8s2.4-5.8,5.4-5.8,5.4,2.4,5.4,5.8-2.4,5.8-5.4,5.8M80.5,38.9h3.7V12.9h-3.7v10.8c-.4-.6-.9-1-1.4-1.5-1-.7-2.6-1.5-4.7-1.5-4.5,0-8.4,3.9-8.4,9.3s3.9,9.3,8.4,9.3,3.7-.7,4.7-1.5c.6-.5,1.1-.9,1.4-1.5v2.6h0ZM49.8,28.2c.7-2.4,2.4-4.1,5.2-4.1s4.3,1.7,4.8,4.1h-10ZM60.6,33.4c-.4.5-.9.9-1.4,1.2-.9.6-2.2,1.2-3.8,1.2-3,0-5.2-2-5.6-4.5h13.8v-.5c0-.3.2-.8.2-1.3,0-5-3.7-8.7-8.7-8.7s-9.1,4.1-9.1,9.3,4.1,9.3,9.3,9.3,4.5-.8,5.8-1.7c.7-.5,1.4-1,1.9-1.7l-2.2-2.6h-.2ZM15.5,38.9h3.7v-9.9c0-3,1.9-4.8,4.3-4.8s3.7,1.5,3.7,4.1v10.6h3.7v-9.9c0-3,1.9-4.8,4.3-4.8s3.7,1.5,3.7,4.1v10.6h3.7v-10.6c0-4.6-3-7.6-6.5-7.6s-3.8.7-4.8,1.5c-.6.4-1,.9-1.4,1.5-.4-.6-.8-1-1.3-1.5-.9-.7-2.3-1.5-4.2-1.5s-3.2.7-4,1.5c-.5.4-.9.9-1.2,1.5v-2.6h-3.7v17.8h0Z"/>
    </g>
  </g>
</svg>