<?xml version="1.0" encoding="UTF-8"?>
<svg id="b" xmlns="http://www.w3.org/2000/svg" xmlns:xlink="http://www.w3.org/1999/xlink" version="1.1" viewBox="0 0 243.8 165">
  <!-- Generator: Adobe Illustrator 30.3.0, SVG Export Plug-In . SVG Version: 2.1.3 Build 182)  -->
  <defs>
    <style>
      .st0 {
        fill: none;
      }

      .st1 {
        fill: #fff;
      }

      .st2 {
        clip-path: url(#clippath);
      }
    </style>
    <clipPath id="clippath">
      <rect class="st0" width="243.8" height="165"/>
    </clipPath>
  </defs>
  <g id="c">
    <g class="st2">
      <g>
        <path class="st1" d="M215.6,101.4c0-9.2-5.9-15.1-13.1-15.1s-13.1,5.9-13.1,15.1,5.9,15.1,13.1,15.1,13.1-5.9,13.1-15.1M194.8,101.4c0-6.7,3.5-10.2,7.7-10.2s7.7,3.5,7.7,10.2-3.5,10.2-7.7,10.2-7.7-3.5-7.7-10.2M168.6,106.3c0-2.8,2.5-5.2,5.9-5.2s5.9,2.4,5.9,5.2-2.5,5.2-5.9,5.2-5.9-2.4-5.9-5.2M165.6,99.6c-.4.6-.9,1.2-1.2,1.9-.6,1.2-1.2,2.9-1.2,4.8,0,5.4,4.7,10.2,11.4,10.2s11.4-4.7,11.4-10.2-4.7-10.2-11.4-10.2h-.5l6.4-9.4h-5.9l-8.9,12.9h-.1ZM136.9,112c.7.8,1.6,1.6,2.7,2.2,1.8,1.1,4.6,2.2,8.5,2.2,7.2,0,11.4-4.2,11.4-8.7s-1.4-4.6-3-5.8c-.8-.6-1.8-1.1-3-1.4.8-.3,1.6-.7,2.3-1.3,1.2-1,2.4-2.6,2.4-5.1,0-4.2-4-7.9-10.2-7.9s-5.9,1.1-7.6,2.1c-1,.6-1.8,1.3-2.6,2.1l3.7,3.7c.4-.5,1-1,1.6-1.5,1-.7,2.6-1.5,4.6-1.5,3.5,0,4.9,1.5,4.9,3.5s-1.7,3.7-4.7,3.7h-3.5v4.9h3.5c4.2,0,5.9,1.7,5.9,4s-2,4.2-6.2,4.2-4.3-.8-5.4-1.6c-.7-.4-1.3-1-1.7-1.6l-3.7,3.7h.1ZM125.7,84.8c0,1.7,1.4,3,3,3s3-1.2,3-3-1.4-3-3-3-3,1.2-3,3M126.2,116h4.9v-23.8h-4.9s0,23.8,0,23.8ZM107.6,111.8c-4,0-7.2-3.2-7.2-7.7s3.2-7.7,7.2-7.7,7.2,3.2,7.2,7.7-3.2,7.7-7.2,7.7M114.8,116h5v-34.7h-5v14.4c-.5-.7-1.1-1.4-1.9-2-1.3-1-3.4-2-6.2-2-5.9,0-11.2,5.2-11.2,12.4s5.2,12.4,11.2,12.4,4.9-1,6.2-2c.8-.6,1.4-1.2,1.9-2v3.5h0ZM73.9,101.6c1-3.2,3.2-5.4,6.9-5.4s5.7,2.2,6.4,5.4h-13.4,0ZM88.3,108.6c-.6.6-1.2,1.2-1.9,1.6-1.2.8-2.9,1.6-5.1,1.6-4,0-6.9-2.7-7.4-5.9h18.3v-.7c.2-.4.2-1,.2-1.8,0-6.7-4.9-11.6-11.6-11.6s-12.1,5.4-12.1,12.4,5.4,12.4,12.4,12.4,5.9-1.1,7.7-2.2c1-.6,1.8-1.4,2.5-2.2l-3-3.5h0ZM28.1,116h4.9v-13.1c0-4,2.5-6.4,5.7-6.4s5,1.9,5,5.4v14.1h5v-13.1c0-4,2.5-6.4,5.7-6.4s5,1.9,5,5.4v14.1h4.9v-14.1c0-6.2-4-10.2-8.7-10.2s-5,1-6.3,2c-.7.6-1.4,1.2-1.8,2-.5-.7-1.1-1.4-1.8-2-1.2-1-3.1-2-5.7-2s-4.2,1-5.3,2c-.6.6-1.2,1.2-1.6,2v-3.5h-5v23.8h0Z"/>
        <path class="st1" d="M210.2,135.9c.1.2.3.3.5.4.4.2.9.4,1.6.4,1.3,0,2.1-.8,2.1-1.8,0-2.2-3.2-1.4-3.2-2.7s.4-.8,1.1-.8.7.1.9.3c.1,0,.2.2.3.3l.6-.6c-.1-.1-.3-.3-.5-.4-.3-.2-.8-.4-1.4-.4-1.3,0-2.1.8-2.1,1.7,0,2.2,3.2,1.4,3.2,2.7s-.4.9-1.2.9-.9-.2-1.1-.3c-.1-.1-.3-.2-.4-.3l-.6.6h.2ZM204.8,136.7h4.3v-.9h-3.4v-1.8h2.6v-.9h-2.6v-1.5h3.3v-.9h-4.2v6h0ZM202.7,135c-.1.2-.3.3-.5.5-.3.2-.8.5-1.4.5-1.2,0-2.2-1-2.2-2.2s1-2.2,2.2-2.2,1.1.2,1.4.4c.2.1.3.3.4.4l.6-.6-.6-.6c-.4-.3-1-.6-1.8-.6-1.8,0-3.2,1.4-3.2,3.1s1.4,3.1,3.2,3.1,1.4-.3,1.9-.6l.6-.6-.6-.6h0ZM194.9,136.7h.9v-6h-.9v6ZM190.2,136.7h1l2.3-6h-1l-1.8,4.8-1.8-4.8h-1l2.3,6h0ZM183.4,133.6v-2.1h1.5c.6,0,1,.4,1,1s-.4,1-1,1h-1.5ZM182.4,136.7h.9v-2.2h1.4l1.2,2.2h1.1l-1.4-2.4c.2,0,.4-.2.6-.4.3-.3.6-.7.6-1.4,0-1.1-.8-1.9-2-1.9h-2.5v6h0ZM176.5,136.7h4.3v-.9h-3.4v-1.8h2.6v-.9h-2.6v-1.5h3.3v-.9h-4.2v6h0ZM170.6,135.9c.1.2.3.3.5.4.4.2.9.4,1.6.4,1.3,0,2.1-.8,2.1-1.8,0-2.2-3.2-1.4-3.2-2.7s.4-.8,1.1-.8.7.1.9.3c.1,0,.2.2.3.3l.6-.6c-.1-.1-.3-.3-.5-.4-.3-.2-.8-.4-1.4-.4-1.3,0-2.1.8-2.1,1.7,0,2.2,3.2,1.4,3.2,2.7s-.4.9-1.2.9-.9-.2-1.1-.3c-.1-.1-.3-.2-.4-.3l-.6.6h.2ZM164.8,136.7h.9v-5.1h1.8v-.9h-4.5v.9h1.8v5.1ZM156.4,136.7h.9v-4.4l3.3,4.4h.9v-6h-.9v4.4l-3.3-4.4h-.9v6ZM150.4,136.7h4.3v-.9h-3.4v-1.8h2.6v-.9h-2.6v-1.5h3.3v-.9h-4.2v6h0ZM142.1,136.7h.9v-4.4l2.2,2.8,2.2-2.8v4.4h.9v-6h-.9l-2.3,2.9-2.3-2.9h-.9v6h.2ZM137.9,136.7h.9v-5.1h1.8v-.9h-4.5v.9h1.8v5.1ZM133.7,136.7h.9v-6h-.9v6ZM126.6,134.3c0,1.4,1,2.5,2.5,2.5s2.5-1,2.5-2.5v-3.6h-.9v3.6c0,.9-.7,1.6-1.6,1.6s-1.6-.7-1.6-1.6v-3.6h-.9s0,3.6,0,3.6ZM121.3,133.6v-2.1h1.5c.6,0,1,.4,1,1s-.4,1-1,1h-1.5ZM120.3,136.7h.9v-2.2h1.4l1.2,2.2h1.1l-1.4-2.4c.2,0,.4-.2.6-.4.3-.3.6-.7.6-1.4,0-1.1-.8-1.9-2-1.9h-2.5v6h.1ZM118.2,135c0,.2-.3.3-.5.5-.3.2-.8.5-1.4.5-1.2,0-2.2-1-2.2-2.2s1-2.2,2.2-2.2,1.1.2,1.4.4c.2.1.3.3.4.4l.6-.6c-.2-.2-.4-.4-.6-.6-.4-.3-1-.6-1.8-.6-1.8,0-3.2,1.4-3.2,3.1s1.4,3.1,3.2,3.1,1.4-.3,1.8-.6c.2-.2.4-.4.6-.6l-.6-.6h0ZM107.7,136.7h4.3v-.9h-3.4v-1.8h2.6v-.9h-2.6v-1.5h3.3v-.9h-4.2v6h0ZM102.3,133.6v-2.1h1.5c.6,0,1,.4,1,1s-.4,1-1,1h-1.5ZM101.4,136.7h.9v-2.2h1.4l1.2,2.2h1.1l-1.4-2.4c.2,0,.4-.2.6-.4.3-.3.6-.7.6-1.4,0-1.1-.8-1.9-2-1.9h-2.5v6h.1ZM94.5,133.1c0-.1-.2-.2-.3-.4-.2-.2-.3-.5-.3-.7,0-.3.2-.6.7-.6s.6.3.6.6-.2.5-.3.7c0,.1-.2.2-.3.4h0ZM95.6,135.6s-.2.1-.3.2c-.2.1-.4.2-.8.2-.6,0-.9-.4-.9-.8s.2-.6.4-.8c0-.1.2-.2.4-.3l1.2,1.5h0ZM94.9,133.6c.2-.1.4-.3.5-.5.3-.3.5-.7.5-1.2s-.6-1.3-1.4-1.3-1.5.6-1.5,1.4.2.8.4,1.1c0,.2.3.3.4.5-.2.1-.4.3-.6.4-.3.3-.6.7-.6,1.3,0,.9.7,1.5,1.8,1.5s.9-.1,1.2-.3c.2,0,.3-.2.4-.3,0,.1.2.2.3.3.2.2.4.3.8.3s.2,0,.3,0h0v-.8h-.2c-.2,0-.3,0-.4-.2,0,0,0-.1-.2-.2,0-.2.2-.3.3-.5,0-.3.3-.8.3-1.3h-.8c0,.3,0,.6-.2.9,0,.1,0,.2-.2.3l-1.2-1.4h0ZM86.6,134.4h1.2v.9c0,.1-.2.2-.4.3-.3.2-.7.3-1.2.3-1.2,0-2.2-1-2.2-2.2s1-2.2,2.2-2.2,1.1.2,1.4.4c.2.1.3.3.4.4l.6-.6c-.2-.2-.4-.4-.6-.6-.4-.3-1-.6-1.8-.6-1.8,0-3.2,1.4-3.2,3.1s1.4,3.1,3.2,3.1,1.5-.3,1.9-.6c.3-.2.5-.4.7-.6v-2.1h-2.2v.9h0ZM76.2,136.7h.9v-4.4l3.3,4.4h.8v-6h-.9v4.4l-3.3-4.4h-.8v6ZM73.1,136.7h.9v-6h-.9v6ZM68.9,136.7h.9v-5.1h1.8v-.9h-4.5v.9h1.8v5.1h0ZM63,136.7h3.8v-.9h-2.9v-5.1h-.9v6h0ZM55.9,134.3c0,1.4,1,2.5,2.5,2.5s2.5-1,2.5-2.5v-3.6h-.9v3.6c0,.9-.7,1.6-1.6,1.6s-1.6-.7-1.6-1.6v-3.6h-.9v3.6ZM50.1,135.9c.2.2.3.3.5.4.3.2.9.4,1.6.4,1.3,0,2.1-.8,2.1-1.8,0-2.2-3.2-1.4-3.2-2.7s.4-.8,1.1-.8.7.1.9.3c0,0,.2.2.3.3l.6-.6c0-.1-.3-.3-.5-.4-.3-.2-.8-.4-1.4-.4-1.3,0-2,.8-2,1.7,0,2.2,3.2,1.4,3.2,2.7s-.4.9-1.2.9-.9-.2-1.1-.3c-.2-.1-.3-.2-.4-.3l-.6.6h.1ZM43.5,136.7h.9v-4.4l3.3,4.4h.8v-6h-.9v4.4l-3.3-4.4h-.8v6ZM35.4,133.7c0,1.7,1.4,3.1,3.2,3.1s3.2-1.4,3.2-3.1-1.4-3.1-3.2-3.1-3.2,1.4-3.2,3.1M36.3,133.7c0-1.2,1-2.2,2.2-2.2s2.2,1,2.2,2.2-1,2.2-2.2,2.2-2.2-1-2.2-2.2M33.8,135c0,.2-.3.3-.5.5-.3.2-.8.5-1.4.5-1.2,0-2.2-1-2.2-2.2s1-2.2,2.2-2.2,1.1.2,1.4.4c.2.1.3.3.5.4l.6-.6c-.2-.2-.4-.4-.6-.6-.4-.3-1-.6-1.8-.6-1.8,0-3.2,1.4-3.2,3.1s1.4,3.1,3.2,3.1,1.4-.3,1.9-.6c.2-.2.5-.4.6-.6l-.6-.6h-.1Z"/>
        <path class="st1" d="M100.4,31.8c-4.1,3.2-6.8,8.1-6.8,13.7s2.7,10.5,6.8,13.7c-1-4.4-1.5-9-1.5-13.7s.5-9.3,1.5-13.7"/>
        <path class="st1" d="M119.3,28.1h-.3c-9.6,0-17.4,7.8-17.4,17.4s7.8,17.4,17.4,17.4.2,0,.3,0c-2.4-5.3-3.8-11.2-3.8-17.4s1.4-12.1,3.8-17.4"/>
        <path class="st1" d="M135.4,62.9c9.6,0,17.4-7.8,17.4-17.4s-7.8-17.4-17.4-17.4-17.4,7.8-17.4,17.4,7.8,17.4,17.4,17.4"/>
      </g>
    </g>
  </g>
</svg>