<?xml version="1.0" encoding="UTF-8"?>
<svg id="b" data-name="Layer 2" xmlns="http://www.w3.org/2000/svg" xmlns:xlink="http://www.w3.org/1999/xlink" viewBox="0 0 168.76 54.51">
  <defs>
    <style>
      .e {
        fill: none;
      }

      .f {
        fill: #fff;
      }

      .g {
        clip-path: url(#d);
      }
    </style>
    <clipPath id="d">
      <rect class="e" width="168.76" height="54.51"/>
    </clipPath>
  </defs>
  <g id="c" data-name="Layer 1">
    <g class="g">
      <path class="f" d="M156.12,27.98c0-6.87-4.46-11.33-9.85-11.33s-9.85,4.46-9.85,11.33,4.46,11.33,9.85,11.33,9.85-4.46,9.85-11.33M140.51,27.98c0-5.02,2.64-7.62,5.76-7.62s5.76,2.6,5.76,7.62-2.64,7.62-5.76,7.62-5.76-2.6-5.76-7.62M120.82,31.69c0-2.08,1.9-3.9,4.46-3.9s4.46,1.82,4.46,3.9-1.89,3.9-4.46,3.9-4.46-1.82-4.46-3.9M118.59,26.68c-.33.45-.67.93-.93,1.45-.48.89-.93,2.19-.93,3.57,0,4.09,3.53,7.62,8.55,7.62s8.55-3.53,8.55-7.62-3.53-7.62-8.55-7.62h-.37l4.83-7.06h-4.46l-6.69,9.66ZM97.04,35.97c.52.63,1.19,1.19,2.01,1.67,1.37.85,3.42,1.67,6.35,1.67,5.39,0,8.55-3.12,8.55-6.5,0-2.12-1.08-3.45-2.23-4.31-.63-.48-1.38-.82-2.23-1.08.63-.22,1.23-.56,1.75-1,.89-.74,1.78-1.93,1.78-3.83,0-3.16-2.97-5.94-7.62-5.94-2.53,0-4.38.82-5.68,1.6-.74.45-1.38.97-1.93,1.56l2.79,2.79c.33-.41.74-.78,1.19-1.11.78-.56,1.97-1.11,3.46-1.11,2.64,0,3.71,1.11,3.71,2.6s-1.3,2.79-3.53,2.79h-2.6v3.72h2.6c3.16,0,4.46,1.3,4.46,2.97s-1.49,3.16-4.64,3.16c-1.9,0-3.2-.59-4.09-1.19-.52-.33-.97-.74-1.3-1.23l-2.79,2.79ZM88.68,15.53c0,1.3,1.08,2.23,2.23,2.23s2.23-.93,2.23-2.23-1.08-2.23-2.23-2.23-2.23.93-2.23,2.23M89.05,38.94h3.72v-17.83h-3.72v17.83ZM49.85,28.16c.74-2.42,2.38-4.09,5.2-4.09,2.64,0,4.27,1.67,4.83,4.09h-10.03ZM60.63,33.37c-.41.48-.89.89-1.41,1.23-.89.59-2.19,1.19-3.79,1.19-3.01,0-5.17-2.04-5.57-4.46h13.75l.07-.52c.04-.33.11-.78.11-1.34,0-5.05-3.68-8.73-8.73-8.73s-9.1,4.09-9.1,9.29,4.09,9.29,9.29,9.29c2.64,0,4.46-.82,5.76-1.67.74-.48,1.37-1.04,1.86-1.67l-2.23-2.6ZM15.48,38.94h3.72v-9.85c0-2.97,1.86-4.83,4.27-4.83,2.08,0,3.72,1.45,3.72,4.09v10.59h3.72v-9.85c0-2.97,1.86-4.83,4.27-4.83,2.08,0,3.72,1.45,3.72,4.09v10.59h3.72v-10.59c0-4.64-2.97-7.62-6.5-7.62-2.23,0-3.75.74-4.76,1.49-.56.44-1.04.93-1.38,1.49-.37-.56-.82-1.04-1.34-1.49-.89-.74-2.3-1.49-4.23-1.49s-3.16.74-4.01,1.49c-.48.44-.89.93-1.19,1.49v-2.6h-3.72v17.83Z"/>
      <path class="f" d="M81.32,30.58c0-2.79-2.23-5.02-5.2-5.02s-5.2,2.23-5.2,5.02,2.23,5.02,5.2,5.02,5.2-2.23,5.2-5.02M83.55,24.82c.33.56.67,1.15.93,1.78.48,1.08.93,2.49.93,3.98,0,4.83-3.9,8.73-9.29,8.73s-9.29-3.9-9.29-8.73,3.9-8.73,8.92-8.73c.56,0,1,.08,1.26.11l.41.07-5.94-9.1h4.46l7.62,11.89Z"/>
    </g>
  </g>
</svg>