<?xml version="1.0" encoding="UTF-8"?>
<svg id="b" data-name="Layer 2" xmlns="http://www.w3.org/2000/svg" xmlns:xlink="http://www.w3.org/1999/xlink" viewBox="0 0 708.66 708.66">
  <defs>
    <style>
      .g {
        fill: none;
      }

      .h {
        fill: url(#e);
      }

      .i {
        fill: #0344f2;
      }

      .j {
        fill: #fff;
      }

      .k {
        fill: #e3edfd;
      }

      .l {
        clip-path: url(#d);
      }

      .m {
        clip-path: url(#f);
      }
    </style>
    <clipPath id="d">
      <rect class="g" width="708.66" height="708.66"/>
    </clipPath>
    <linearGradient id="e" x1="-327.53" y1="739.41" x2="-326.53" y2="739.41" gradientTransform="translate(-740686.15 328103.12) rotate(90) scale(1002.2 -1002.2)" gradientUnits="userSpaceOnUse">
      <stop offset="0" stop-color="#e3edfd"/>
      <stop offset="0" stop-color="#e3edfd"/>
      <stop offset="1" stop-color="#bcd1f0"/>
    </linearGradient>
    <clipPath id="f">
      <rect class="g" y="0" width="708.66" height="708.66"/>
    </clipPath>
  </defs>
  <g id="c" data-name="Layer 1">
    <g class="l">
      <rect class="h" x="-146.77" y="-146.77" width="1002.2" height="1002.2" transform="translate(-146.77 354.33) rotate(-45)"/>
    </g>
    <rect y="531.5" width="354.33" height="177.17"/>
    <rect class="i" x="354.33" y="531.5" width="354.33" height="177.17"/>
    <g class="m">
      <path d="M448.71,233.82c0-9.17-5.94-15.11-13.13-15.11s-13.13,5.94-13.13,15.11,5.95,15.11,13.13,15.11,13.13-5.95,13.13-15.11M427.9,233.82c0-6.69,3.52-10.16,7.68-10.16s7.68,3.47,7.68,10.16-3.52,10.16-7.68,10.16-7.68-3.47-7.68-10.16M401.64,238.78c0-2.77,2.53-5.2,5.95-5.2s5.95,2.43,5.95,5.2-2.53,5.2-5.95,5.2-5.95-2.43-5.95-5.2M398.67,232.09c-.45.6-.89,1.24-1.24,1.93-.64,1.19-1.24,2.92-1.24,4.76,0,5.45,4.71,10.16,11.39,10.16s11.39-4.71,11.39-10.16-4.71-10.16-11.39-10.16h-.49l6.44-9.41h-5.95l-8.92,12.88ZM369.94,244.47c.69.84,1.59,1.58,2.68,2.23,1.83,1.14,4.56,2.23,8.47,2.23,7.18,0,11.39-4.16,11.39-8.67,0-2.82-1.44-4.61-2.97-5.75-.84-.64-1.83-1.09-2.97-1.44.84-.3,1.63-.74,2.33-1.34,1.19-.99,2.38-2.58,2.38-5.1,0-4.21-3.96-7.93-10.16-7.93-3.37,0-5.85,1.09-7.58,2.13-.99.59-1.83,1.29-2.58,2.08l3.72,3.71c.45-.54.99-1.04,1.58-1.49,1.04-.74,2.63-1.49,4.61-1.49,3.52,0,4.95,1.49,4.95,3.47s-1.73,3.72-4.71,3.72h-3.47v4.95h3.47c4.21,0,5.95,1.73,5.95,3.96s-1.98,4.21-6.19,4.21c-2.53,0-4.26-.79-5.45-1.58-.69-.45-1.29-.99-1.73-1.64l-3.72,3.72ZM358.79,217.23c0,1.73,1.44,2.97,2.97,2.97s2.97-1.24,2.97-2.97-1.44-2.97-2.97-2.97-2.97,1.24-2.97,2.97M359.29,248.44h4.95v-23.78h-4.95v23.78ZM340.71,244.23c-3.96,0-7.18-3.17-7.18-7.68s3.22-7.68,7.18-7.68,7.18,3.17,7.18,7.68-3.22,7.68-7.18,7.68M347.89,248.44h4.95v-34.68h-4.95v14.37c-.49-.74-1.14-1.39-1.93-1.98-1.34-.99-3.42-1.98-6.24-1.98-5.95,0-11.15,5.2-11.15,12.39s5.2,12.39,11.15,12.39c2.82,0,4.9-.99,6.24-1.98.79-.6,1.44-1.24,1.93-1.98v3.47ZM307.02,234.07c.99-3.22,3.17-5.45,6.94-5.45,3.52,0,5.7,2.23,6.44,5.45h-13.38ZM321.39,241.01c-.55.64-1.19,1.19-1.88,1.64-1.19.79-2.92,1.58-5.05,1.58-4.01,0-6.89-2.72-7.43-5.94h18.33l.1-.69c.05-.45.15-1.04.15-1.78,0-6.74-4.9-11.64-11.64-11.64s-12.14,5.45-12.14,12.39,5.45,12.39,12.39,12.39c3.52,0,5.95-1.09,7.68-2.23.99-.64,1.83-1.39,2.48-2.23l-2.97-3.47ZM261.19,248.44h4.95v-13.13c0-3.96,2.48-6.44,5.7-6.44,2.77,0,4.95,1.93,4.95,5.45v14.12h4.95v-13.13c0-3.96,2.48-6.44,5.7-6.44,2.77,0,4.95,1.93,4.95,5.45v14.12h4.95v-14.12c0-6.19-3.96-10.16-8.67-10.16-2.97,0-5,.99-6.34,1.98-.74.6-1.39,1.24-1.83,1.98-.49-.74-1.09-1.39-1.78-1.98-1.19-.99-3.07-1.98-5.65-1.98s-4.21.99-5.35,1.98c-.64.6-1.19,1.24-1.59,1.98v-3.47h-4.95v23.78Z"/>
      <path class="i" d="M443.26,268.34c.15.17.32.32.52.45.35.23.89.44,1.62.44,1.33,0,2.14-.81,2.14-1.75,0-2.22-3.16-1.41-3.16-2.74,0-.44.38-.81,1.11-.81.4,0,.72.14.92.28.12.08.22.17.32.27l.64-.64c-.13-.15-.29-.27-.48-.39-.32-.2-.79-.38-1.4-.38-1.27,0-2.05.77-2.05,1.67,0,2.22,3.16,1.41,3.16,2.74,0,.48-.42.9-1.2.9-.51,0-.89-.17-1.14-.34-.15-.1-.26-.21-.36-.34l-.64.64ZM437.87,269.15h4.32v-.9h-3.38v-1.75h2.61v-.9h-2.61v-1.54h3.29v-.9h-4.23v5.98ZM435.73,267.44c-.13.18-.29.33-.48.47-.32.24-.79.47-1.4.47-1.24,0-2.22-.98-2.22-2.22s.98-2.22,2.22-2.22c.62,0,1.08.22,1.39.45.18.13.33.28.45.45l.6-.6c-.17-.21-.38-.4-.61-.57-.41-.3-1.01-.58-1.83-.58-1.79,0-3.16,1.37-3.16,3.08s1.37,3.08,3.16,3.08c.82,0,1.43-.3,1.85-.6.25-.18.45-.38.63-.6l-.6-.6ZM428,269.15h.94v-5.98h-.94v5.98ZM423.25,269.15h1.03l2.31-5.98h-.98l-1.84,4.79-1.84-4.79h-.98l2.31,5.98ZM416.46,266.08v-2.05h1.54c.61,0,1.03.42,1.03,1.03s-.42,1.03-1.03,1.03h-1.54ZM415.52,269.15h.94v-2.22h1.41l1.24,2.22h1.07l-1.36-2.39c.21-.08.4-.2.57-.36.28-.26.57-.67.57-1.35,0-1.06-.81-1.88-1.97-1.88h-2.48v5.98ZM409.53,269.15h4.32v-.9h-3.38v-1.75h2.61v-.9h-2.61v-1.54h3.29v-.9h-4.23v5.98ZM403.63,268.34c.15.17.32.32.52.45.35.23.89.44,1.62.44,1.33,0,2.14-.81,2.14-1.75,0-2.22-3.16-1.41-3.16-2.74,0-.44.38-.81,1.11-.81.4,0,.72.14.92.28.12.08.22.17.32.27l.64-.64c-.13-.15-.29-.27-.48-.39-.32-.2-.79-.38-1.4-.38-1.27,0-2.05.77-2.05,1.67,0,2.22,3.16,1.41,3.16,2.74,0,.48-.42.9-1.2.9-.51,0-.89-.17-1.14-.34-.15-.1-.26-.21-.36-.34l-.64.64ZM397.81,269.15h.94v-5.09h1.79v-.9h-4.53v.9h1.8v5.09ZM389.48,269.15h.94v-4.4l3.29,4.4h.85v-5.98h-.94v4.4l-3.29-4.4h-.85v5.98ZM383.49,269.15h4.32v-.9h-3.38v-1.75h2.61v-.9h-2.61v-1.54h3.29v-.9h-4.23v5.98ZM375.11,269.15h.94v-4.4l2.18,2.78,2.18-2.78v4.4h.94v-5.98h-.85l-2.27,2.91-2.27-2.91h-.85v5.98ZM370.93,269.15h.94v-5.09h1.8v-.9h-4.53v.9h1.8v5.09ZM366.74,269.15h.94v-5.98h-.94v5.98ZM359.64,266.76c0,1.45,1.02,2.48,2.52,2.48s2.52-1.02,2.52-2.48v-3.59h-.94v3.59c0,.9-.73,1.62-1.58,1.62-.9,0-1.58-.68-1.58-1.62v-3.59h-.94v3.59ZM354.34,266.08v-2.05h1.54c.61,0,1.03.42,1.03,1.03s-.42,1.03-1.03,1.03h-1.54ZM353.4,269.15h.94v-2.22h1.41l1.24,2.22h1.07l-1.36-2.39c.21-.08.4-.2.57-.36.28-.26.57-.67.57-1.35,0-1.06-.81-1.88-1.97-1.88h-2.48v5.98ZM351.26,267.44c-.13.18-.29.33-.48.47-.32.24-.79.47-1.4.47-1.24,0-2.22-.98-2.22-2.22s.98-2.22,2.22-2.22c.61,0,1.08.22,1.38.45.18.13.33.28.45.45l.6-.6c-.17-.21-.38-.4-.61-.57-.41-.3-1.01-.58-1.83-.58-1.8,0-3.16,1.37-3.16,3.08s1.37,3.08,3.16,3.08c.82,0,1.43-.3,1.85-.6.25-.18.45-.38.63-.6l-.6-.6ZM340.79,269.15h4.32v-.9h-3.38v-1.75h2.61v-.9h-2.61v-1.54h3.29v-.9h-4.23v5.98ZM335.4,266.08v-2.05h1.54c.61,0,1.03.42,1.03,1.03s-.42,1.03-1.03,1.03h-1.54ZM334.46,269.15h.94v-2.22h1.41l1.24,2.22h1.07l-1.36-2.39c.21-.08.4-.2.57-.36.28-.26.57-.67.57-1.35,0-1.06-.81-1.88-1.96-1.88h-2.48v5.98ZM327.57,265.52c-.12-.12-.23-.24-.33-.36-.16-.2-.32-.47-.32-.71,0-.34.25-.6.68-.6.38,0,.64.26.64.6,0,.24-.17.51-.34.71-.1.12-.21.24-.34.36ZM328.69,268.08c-.09.08-.18.15-.28.21-.18.11-.45.21-.79.21-.56,0-.94-.38-.94-.81,0-.34.19-.62.39-.83.11-.12.24-.23.38-.32l1.24,1.54ZM328,266.03c.2-.14.38-.29.53-.46.26-.3.54-.68.54-1.16,0-.72-.6-1.32-1.45-1.32-.9,0-1.5.6-1.5,1.37,0,.39.21.78.43,1.08.13.18.26.34.43.5-.21.11-.41.26-.58.42-.3.28-.57.71-.57,1.29,0,.86.68,1.54,1.75,1.54.51,0,.91-.15,1.2-.32.16-.09.31-.21.43-.32.08.11.17.21.27.3.18.16.42.3.75.3.14,0,.25,0,.31-.02l.08-.02v-.77l-.08.03c-.06,0-.12.02-.18.02-.17,0-.32-.09-.45-.19-.07-.06-.13-.12-.19-.2.1-.16.2-.33.27-.53.14-.33.28-.8.28-1.31h-.77c0,.34-.08.64-.17.86-.05.13-.11.24-.17.34l-1.15-1.41ZM319.62,266.84h1.24v.9c-.11.12-.25.23-.41.33-.27.16-.67.32-1.21.32-1.24,0-2.22-.98-2.22-2.22s.98-2.22,2.22-2.22c.62,0,1.08.22,1.39.45.18.13.33.28.45.45l.6-.6c-.17-.21-.38-.4-.61-.57-.41-.3-1.01-.58-1.83-.58-1.8,0-3.16,1.37-3.16,3.08s1.37,3.08,3.16,3.08c.83,0,1.47-.27,1.91-.57.26-.17.48-.37.66-.58v-2.09h-2.18v.85ZM309.23,269.15h.94v-4.4l3.29,4.4h.85v-5.98h-.94v4.4l-3.29-4.4h-.85v5.98ZM306.15,269.15h.94v-5.98h-.94v5.98ZM301.96,269.15h.94v-5.09h1.8v-.9h-4.53v.9h1.8v5.09ZM296.06,269.15h3.85v-.9h-2.91v-5.09h-.94v5.98ZM288.97,266.76c0,1.45,1.02,2.48,2.52,2.48s2.52-1.02,2.52-2.48v-3.59h-.94v3.59c0,.9-.73,1.62-1.58,1.62-.9,0-1.58-.68-1.58-1.62v-3.59h-.94v3.59ZM283.15,268.34c.15.17.32.32.52.45.35.23.89.44,1.62.44,1.33,0,2.14-.81,2.14-1.75,0-2.22-3.16-1.41-3.16-2.74,0-.44.38-.81,1.11-.81.4,0,.72.14.92.28.12.08.22.17.32.27l.64-.64c-.13-.15-.29-.27-.48-.39-.32-.2-.79-.38-1.4-.38-1.27,0-2.05.77-2.05,1.67,0,2.22,3.16,1.41,3.16,2.74,0,.48-.42.9-1.2.9-.51,0-.89-.17-1.14-.34-.15-.1-.27-.21-.36-.34l-.64.64ZM276.53,269.15h.94v-4.4l3.29,4.4h.85v-5.98h-.94v4.4l-3.29-4.4h-.85v5.98ZM268.45,266.16c0,1.71,1.37,3.08,3.16,3.08s3.16-1.37,3.16-3.08-1.37-3.08-3.16-3.08-3.16,1.37-3.16,3.08M269.39,266.16c0-1.24.98-2.22,2.22-2.22s2.22.98,2.22,2.22-.98,2.22-2.22,2.22-2.22-.98-2.22-2.22M266.87,267.44c-.13.18-.29.33-.48.47-.32.24-.79.47-1.4.47-1.24,0-2.22-.98-2.22-2.22s.98-2.22,2.22-2.22c.62,0,1.08.22,1.39.45.18.13.33.28.45.45l.6-.6c-.17-.21-.38-.4-.61-.57-.41-.3-1.01-.58-1.83-.58-1.8,0-3.16,1.37-3.16,3.08s1.37,3.08,3.16,3.08c.82,0,1.43-.3,1.85-.6.25-.18.45-.38.63-.6l-.6-.6Z"/>
      <path class="i" d="M333.52,164.23c-4.1,3.18-6.75,8.14-6.75,13.73s2.65,10.55,6.75,13.73c-.99-4.42-1.53-9.01-1.53-13.73s.54-9.31,1.53-13.73"/>
      <path class="i" d="M352.33,160.59c-.12,0-.23-.02-.35-.02-9.6,0-17.39,7.78-17.39,17.39s7.78,17.39,17.39,17.39c.12,0,.23-.02.35-.02-2.43-5.29-3.82-11.16-3.82-17.37s1.39-12.08,3.82-17.37"/>
      <path class="i" d="M368.5,195.35c9.6,0,17.39-7.78,17.39-17.39s-7.79-17.39-17.39-17.39-17.39,7.78-17.39,17.39,7.78,17.39,17.39,17.39"/>
      <path d="M591.11,397.98c0-6.87-4.46-11.33-9.85-11.33s-9.85,4.46-9.85,11.33,4.46,11.33,9.85,11.33,9.85-4.46,9.85-11.33M575.51,397.98c0-5.02,2.64-7.62,5.76-7.62s5.76,2.6,5.76,7.62-2.64,7.62-5.76,7.62-5.76-2.6-5.76-7.62M555.81,401.69c0-2.08,1.9-3.9,4.46-3.9s4.46,1.82,4.46,3.9-1.89,3.9-4.46,3.9-4.46-1.82-4.46-3.9M553.58,396.68c-.34.45-.67.93-.93,1.45-.48.89-.93,2.19-.93,3.57,0,4.09,3.53,7.62,8.55,7.62s8.55-3.53,8.55-7.62-3.53-7.62-8.55-7.62h-.37l4.83-7.06h-4.46l-6.69,9.66ZM532.03,405.97c.52.63,1.19,1.19,2.01,1.67,1.37.85,3.42,1.67,6.35,1.67,5.39,0,8.55-3.12,8.55-6.5,0-2.12-1.08-3.46-2.23-4.31-.63-.48-1.38-.82-2.23-1.08.63-.22,1.23-.56,1.75-1,.89-.74,1.78-1.93,1.78-3.83,0-3.16-2.97-5.94-7.62-5.94-2.53,0-4.38.82-5.68,1.6-.74.45-1.38.97-1.93,1.56l2.79,2.79c.33-.41.74-.78,1.19-1.11.78-.56,1.97-1.11,3.46-1.11,2.64,0,3.71,1.11,3.71,2.6s-1.3,2.79-3.53,2.79h-2.6v3.72h2.6c3.16,0,4.46,1.3,4.46,2.97s-1.49,3.16-4.64,3.16c-1.9,0-3.2-.6-4.09-1.19-.52-.33-.97-.74-1.3-1.23l-2.79,2.79ZM523.67,385.53c0,1.3,1.08,2.23,2.23,2.23s2.23-.93,2.23-2.23-1.08-2.23-2.23-2.23-2.23.93-2.23,2.23M524.04,408.94h3.72v-17.83h-3.72v17.83ZM510.11,405.78c-2.97,0-5.39-2.38-5.39-5.76s2.42-5.76,5.39-5.76,5.39,2.38,5.39,5.76-2.41,5.76-5.39,5.76M515.5,408.94h3.72v-26.01h-3.72v10.78c-.37-.56-.85-1.04-1.45-1.49-1-.74-2.56-1.49-4.68-1.49-4.46,0-8.36,3.9-8.36,9.29s3.9,9.29,8.36,9.29c2.12,0,3.68-.74,4.68-1.49.59-.45,1.08-.93,1.45-1.49v2.6ZM484.85,398.16c.74-2.42,2.38-4.09,5.2-4.09,2.64,0,4.27,1.67,4.83,4.09h-10.03ZM495.62,403.37c-.41.48-.89.89-1.41,1.23-.89.59-2.19,1.19-3.79,1.19-3.01,0-5.17-2.04-5.57-4.46h13.75l.07-.52c.04-.33.11-.78.11-1.34,0-5.05-3.68-8.73-8.73-8.73s-9.1,4.09-9.1,9.29,4.09,9.29,9.29,9.29c2.64,0,4.46-.82,5.76-1.67.74-.48,1.37-1.04,1.86-1.67l-2.23-2.6ZM450.48,408.94h3.72v-9.85c0-2.97,1.86-4.83,4.27-4.83,2.08,0,3.71,1.45,3.71,4.09v10.59h3.72v-9.85c0-2.97,1.86-4.83,4.27-4.83,2.08,0,3.72,1.45,3.72,4.09v10.59h3.71v-10.59c0-4.64-2.97-7.62-6.5-7.62-2.23,0-3.75.74-4.76,1.49-.56.44-1.04.93-1.38,1.49-.37-.56-.82-1.04-1.34-1.49-.89-.74-2.3-1.49-4.23-1.49s-3.16.74-4.01,1.49c-.48.44-.89.93-1.19,1.49v-2.6h-3.72v17.83Z"/>
      <path d="M305.26,397.98c0-6.87-4.46-11.33-9.85-11.33s-9.85,4.46-9.85,11.33,4.46,11.33,9.85,11.33,9.85-4.46,9.85-11.33M289.66,397.98c0-5.02,2.64-7.62,5.76-7.62s5.76,2.6,5.76,7.62-2.64,7.62-5.76,7.62-5.76-2.6-5.76-7.62M269.96,401.69c0-2.08,1.89-3.9,4.46-3.9s4.46,1.82,4.46,3.9-1.9,3.9-4.46,3.9-4.46-1.82-4.46-3.9M267.73,396.68c-.33.45-.67.93-.93,1.45-.48.89-.93,2.19-.93,3.57,0,4.09,3.53,7.62,8.55,7.62s8.55-3.53,8.55-7.62-3.53-7.62-8.55-7.62h-.37l4.83-7.06h-4.46l-6.69,9.66ZM246.18,405.97c.52.63,1.19,1.19,2.01,1.67,1.37.85,3.42,1.67,6.35,1.67,5.39,0,8.55-3.12,8.55-6.5,0-2.12-1.08-3.46-2.23-4.31-.63-.48-1.38-.82-2.23-1.08.63-.22,1.23-.56,1.75-1,.89-.74,1.78-1.93,1.78-3.83,0-3.16-2.97-5.94-7.62-5.94-2.53,0-4.38.82-5.68,1.6-.74.45-1.37.97-1.93,1.56l2.79,2.79c.33-.41.74-.78,1.19-1.11.78-.56,1.97-1.11,3.46-1.11,2.64,0,3.71,1.11,3.71,2.6s-1.3,2.79-3.53,2.79h-2.6v3.72h2.6c3.16,0,4.46,1.3,4.46,2.97s-1.49,3.16-4.64,3.16c-1.9,0-3.2-.6-4.09-1.19-.52-.33-.97-.74-1.3-1.23l-2.79,2.79ZM237.82,385.53c0,1.3,1.08,2.23,2.23,2.23s2.23-.93,2.23-2.23-1.08-2.23-2.23-2.23-2.23.93-2.23,2.23M238.2,408.94h3.72v-17.83h-3.72v17.83ZM224.26,405.78c-2.97,0-5.39-2.38-5.39-5.76s2.41-5.76,5.39-5.76,5.39,2.38,5.39,5.76-2.42,5.76-5.39,5.76M229.65,408.94h3.71v-26.01h-3.71v10.78c-.37-.56-.86-1.04-1.45-1.49-1-.74-2.56-1.49-4.68-1.49-4.46,0-8.36,3.9-8.36,9.29s3.9,9.29,8.36,9.29c2.12,0,3.68-.74,4.68-1.49.59-.45,1.08-.93,1.45-1.49v2.6ZM199,398.16c.74-2.42,2.38-4.09,5.2-4.09,2.64,0,4.27,1.67,4.83,4.09h-10.03ZM209.77,403.37c-.41.48-.89.89-1.41,1.23-.89.59-2.19,1.19-3.79,1.19-3.01,0-5.16-2.04-5.57-4.46h13.75l.07-.52c.04-.33.11-.78.11-1.34,0-5.05-3.68-8.73-8.73-8.73s-9.1,4.09-9.1,9.29,4.09,9.29,9.29,9.29c2.64,0,4.46-.82,5.76-1.67.74-.48,1.37-1.04,1.86-1.67l-2.23-2.6ZM164.63,408.94h3.72v-9.85c0-2.97,1.86-4.83,4.27-4.83,2.08,0,3.71,1.45,3.71,4.09v10.59h3.72v-9.85c0-2.97,1.86-4.83,4.27-4.83,2.08,0,3.72,1.45,3.72,4.09v10.59h3.71v-10.59c0-4.64-2.97-7.62-6.5-7.62-2.23,0-3.75.74-4.76,1.49-.56.44-1.04.93-1.38,1.49-.37-.56-.82-1.04-1.34-1.49-.89-.74-2.3-1.49-4.24-1.49s-3.16.74-4.01,1.49c-.48.44-.89.93-1.19,1.49v-2.6h-3.72v17.83Z"/>
      <path class="i" d="M116.07,387.95c-3.01,2.33-4.95,5.97-4.95,10.07s1.94,7.74,4.95,10.07c-.73-3.24-1.12-6.61-1.12-10.07s.4-6.83,1.12-10.07"/>
      <path class="i" d="M129.87,385.27c-.09,0-.17-.01-.25-.01-7.04,0-12.76,5.71-12.76,12.76s5.71,12.76,12.76,12.76c.09,0,.17-.01.25-.01-1.78-3.88-2.8-8.19-2.8-12.74s1.02-8.86,2.8-12.74"/>
      <path class="i" d="M141.73,410.77c7.04,0,12.76-5.71,12.76-12.76s-5.71-12.76-12.76-12.76-12.76,5.71-12.76,12.76,5.71,12.76,12.76,12.76"/>
      <path class="k" d="M250.18,620.5c0-5.16-3.34-8.5-7.38-8.5s-7.38,3.34-7.38,8.5,3.34,8.5,7.38,8.5,7.38-3.34,7.38-8.5M238.48,620.5c0-3.76,1.98-5.71,4.32-5.71s4.32,1.95,4.32,5.71-1.98,5.71-4.32,5.71-4.32-1.95-4.32-5.71M223.71,623.29c0-1.56,1.42-2.93,3.34-2.93s3.34,1.36,3.34,2.93-1.42,2.93-3.34,2.93-3.34-1.37-3.34-2.93M222.04,619.52c-.25.33-.5.7-.7,1.09-.36.67-.7,1.64-.7,2.67,0,3.07,2.65,5.71,6.41,5.71s6.41-2.65,6.41-5.71-2.65-5.71-6.41-5.71h-.28l3.62-5.29h-3.34l-5.02,7.25ZM205.87,626.49c.39.47.89.89,1.51,1.25,1.03.64,2.56,1.25,4.76,1.25,4.04,0,6.41-2.34,6.41-4.88,0-1.59-.81-2.59-1.67-3.23-.47-.36-1.03-.61-1.67-.81.47-.17.92-.42,1.31-.75.67-.56,1.34-1.45,1.34-2.87,0-2.37-2.23-4.46-5.71-4.46-1.9,0-3.29.61-4.26,1.2-.56.33-1.03.72-1.45,1.17l2.09,2.09c.25-.31.56-.59.89-.84.59-.42,1.48-.84,2.59-.84,1.98,0,2.79.84,2.79,1.95s-.98,2.09-2.65,2.09h-1.95v2.79h1.95c2.37,0,3.34.97,3.34,2.23s-1.11,2.37-3.48,2.37c-1.42,0-2.4-.45-3.07-.89-.39-.25-.72-.56-.98-.92l-2.09,2.09ZM199.6,611.16c0,.98.81,1.67,1.67,1.67s1.67-.7,1.67-1.67-.81-1.67-1.67-1.67-1.67.7-1.67,1.67M199.88,628.72h2.79v-13.38h-2.79v13.38ZM189.43,626.35c-2.23,0-4.04-1.78-4.04-4.32s1.81-4.32,4.04-4.32,4.04,1.78,4.04,4.32-1.81,4.32-4.04,4.32M193.47,628.72h2.79v-19.51h-2.79v8.08c-.28-.42-.64-.78-1.09-1.11-.75-.56-1.92-1.12-3.51-1.12-3.34,0-6.27,2.93-6.27,6.97s2.93,6.97,6.27,6.97c1.59,0,2.76-.56,3.51-1.12.45-.33.81-.7,1.09-1.11v1.95ZM170.48,620.64c.56-1.81,1.78-3.07,3.9-3.07,1.98,0,3.2,1.25,3.62,3.07h-7.52ZM178.56,624.54c-.31.36-.67.67-1.06.92-.67.44-1.64.89-2.84.89-2.26,0-3.87-1.53-4.18-3.34h10.31l.06-.39c.03-.25.08-.58.08-1,0-3.79-2.76-6.55-6.55-6.55s-6.83,3.07-6.83,6.97,3.07,6.97,6.97,6.97c1.98,0,3.34-.61,4.32-1.25.56-.36,1.03-.78,1.39-1.25l-1.67-1.95ZM144.7,628.72h2.79v-7.38c0-2.23,1.39-3.62,3.21-3.62,1.56,0,2.79,1.09,2.79,3.07v7.94h2.79v-7.38c0-2.23,1.39-3.62,3.21-3.62,1.56,0,2.79,1.09,2.79,3.07v7.94h2.79v-7.94c0-3.48-2.23-5.71-4.88-5.71-1.67,0-2.81.56-3.57,1.12-.42.33-.78.7-1.03,1.11-.28-.42-.61-.78-1-1.11-.67-.56-1.73-1.12-3.18-1.12s-2.37.56-3.01,1.12c-.36.33-.67.7-.89,1.11v-1.95h-2.79v13.38Z"/>
      <path class="i" d="M108.28,612.97c-2.26,1.75-3.71,4.48-3.71,7.55s1.46,5.8,3.71,7.55c-.55-2.43-.84-4.96-.84-7.55s.3-5.12.84-7.55"/>
      <path class="i" d="M118.64,610.97c-.06,0-.13,0-.19,0-5.28,0-9.57,4.28-9.57,9.57s4.28,9.57,9.57,9.57c.06,0,.13,0,.19,0-1.34-2.91-2.1-6.14-2.1-9.56s.77-6.64,2.1-9.56"/>
      <path class="i" d="M127.53,630.1c5.28,0,9.57-4.28,9.57-9.57s-4.28-9.57-9.57-9.57-9.57,4.28-9.57,9.57,4.28,9.57,9.57,9.57"/>
      <path class="j" d="M604.51,620.5c0-5.16-3.34-8.5-7.39-8.5s-7.38,3.34-7.38,8.5,3.34,8.5,7.38,8.5,7.39-3.34,7.39-8.5M592.81,620.5c0-3.76,1.98-5.71,4.32-5.71s4.32,1.95,4.32,5.71-1.98,5.71-4.32,5.71-4.32-1.95-4.32-5.71M578.04,623.29c0-1.56,1.42-2.93,3.34-2.93s3.34,1.36,3.34,2.93-1.42,2.93-3.34,2.93-3.34-1.37-3.34-2.93M576.37,619.52c-.25.33-.5.7-.7,1.09-.36.67-.7,1.64-.7,2.67,0,3.07,2.65,5.71,6.41,5.71s6.41-2.65,6.41-5.71-2.65-5.71-6.41-5.71h-.28l3.62-5.29h-3.34l-5.02,7.25ZM560.2,626.49c.39.47.89.89,1.5,1.25,1.03.64,2.56,1.25,4.77,1.25,4.04,0,6.41-2.34,6.41-4.88,0-1.59-.81-2.59-1.67-3.23-.47-.36-1.03-.61-1.67-.81.47-.17.92-.42,1.31-.75.67-.56,1.34-1.45,1.34-2.87,0-2.37-2.23-4.46-5.71-4.46-1.9,0-3.29.61-4.26,1.2-.56.33-1.03.72-1.45,1.17l2.09,2.09c.25-.31.56-.59.89-.84.59-.42,1.48-.84,2.59-.84,1.98,0,2.79.84,2.79,1.95s-.98,2.09-2.65,2.09h-1.95v2.79h1.95c2.37,0,3.34.97,3.34,2.23s-1.11,2.37-3.48,2.37c-1.42,0-2.4-.45-3.07-.89-.39-.25-.72-.56-.97-.92l-2.09,2.09ZM553.93,611.16c0,.98.81,1.67,1.67,1.67s1.67-.7,1.67-1.67-.81-1.67-1.67-1.67-1.67.7-1.67,1.67M554.21,628.72h2.79v-13.38h-2.79v13.38ZM543.76,626.35c-2.23,0-4.04-1.78-4.04-4.32s1.81-4.32,4.04-4.32,4.04,1.78,4.04,4.32-1.81,4.32-4.04,4.32M547.8,628.72h2.79v-19.51h-2.79v8.08c-.28-.42-.64-.78-1.09-1.11-.75-.56-1.92-1.12-3.51-1.12-3.34,0-6.27,2.93-6.27,6.97s2.93,6.97,6.27,6.97c1.59,0,2.76-.56,3.51-1.12.45-.33.81-.7,1.09-1.11v1.95ZM524.81,620.64c.56-1.81,1.78-3.07,3.9-3.07,1.98,0,3.2,1.25,3.62,3.07h-7.52ZM532.89,624.54c-.31.36-.67.67-1.06.92-.67.44-1.64.89-2.84.89-2.26,0-3.87-1.53-4.18-3.34h10.31l.06-.39c.03-.25.08-.58.08-1,0-3.79-2.76-6.55-6.55-6.55s-6.83,3.07-6.83,6.97,3.07,6.97,6.97,6.97c1.98,0,3.34-.61,4.32-1.25.56-.36,1.03-.78,1.39-1.25l-1.67-1.95ZM499.03,628.72h2.79v-7.38c0-2.23,1.39-3.62,3.2-3.62,1.56,0,2.79,1.09,2.79,3.07v7.94h2.79v-7.38c0-2.23,1.39-3.62,3.2-3.62,1.56,0,2.79,1.09,2.79,3.07v7.94h2.79v-7.94c0-3.48-2.23-5.71-4.88-5.71-1.67,0-2.81.56-3.57,1.12-.42.33-.78.7-1.03,1.11-.28-.42-.61-.78-1-1.11-.67-.56-1.73-1.12-3.18-1.12s-2.37.56-3.01,1.12c-.36.33-.67.7-.89,1.11v-1.95h-2.79v13.38Z"/>
      <path class="j" d="M462.62,612.97c-2.26,1.75-3.71,4.48-3.71,7.55s1.46,5.8,3.71,7.55c-.55-2.43-.84-4.96-.84-7.55s.3-5.12.84-7.55"/>
      <path class="j" d="M472.97,610.97c-.06,0-.13,0-.19,0-5.28,0-9.57,4.28-9.57,9.57s4.28,9.57,9.57,9.57c.06,0,.13,0,.19,0-1.34-2.91-2.1-6.14-2.1-9.56s.77-6.64,2.1-9.56"/>
      <path class="j" d="M481.86,630.1c5.28,0,9.57-4.28,9.57-9.57s-4.28-9.57-9.57-9.57-9.57,4.28-9.57,9.57,4.28,9.57,9.57,9.57"/>
    </g>
  </g>
</svg>